<mxfile host="Electron" modified="2023-05-24T04:03:57.958Z" agent="Mozilla/5.0 (Windows NT 10.0; Win64; x64) AppleWebKit/537.36 (KHTML, like Gecko) draw.io/21.2.8 Chrome/112.0.5615.165 Electron/24.2.0 Safari/537.36" etag="gX67kxIQvrz5QILJQu3_" version="21.2.8" type="device">
  <diagram name="Page-1" id="Z_ukWD725YpG1nfR_a9T">
    <mxGraphModel dx="915" dy="698" grid="1" gridSize="10" guides="1" tooltips="1" connect="1" arrows="1" fold="1" page="1" pageScale="1" pageWidth="850" pageHeight="1100" math="0" shadow="0">
      <root>
        <mxCell id="0" />
        <mxCell id="1" parent="0" />
        <mxCell id="9hlInutrF6bWVYg36ET1-25" style="edgeStyle=orthogonalEdgeStyle;rounded=0;orthogonalLoop=1;jettySize=auto;html=1;startArrow=classic;startFill=1;" edge="1" parent="1" source="9hlInutrF6bWVYg36ET1-19" target="9hlInutrF6bWVYg36ET1-21">
          <mxGeometry relative="1" as="geometry">
            <Array as="points">
              <mxPoint x="529" y="190" />
              <mxPoint x="529" y="190" />
            </Array>
          </mxGeometry>
        </mxCell>
        <mxCell id="9hlInutrF6bWVYg36ET1-19" value="" style="whiteSpace=wrap;html=1;" vertex="1" parent="1">
          <mxGeometry x="240.5" y="90" width="391" height="90" as="geometry" />
        </mxCell>
        <mxCell id="9hlInutrF6bWVYg36ET1-1" value="Application" style="verticalLabelPosition=bottom;html=1;verticalAlign=top;strokeWidth=1;align=center;outlineConnect=0;dashed=0;outlineConnect=0;shape=mxgraph.aws3d.application;fillColor=#4286c5;strokeColor=#57A2D8;aspect=fixed;" vertex="1" parent="1">
          <mxGeometry x="413.47" y="100" width="45.06" height="50" as="geometry" />
        </mxCell>
        <mxCell id="9hlInutrF6bWVYg36ET1-12" style="rounded=0;orthogonalLoop=1;jettySize=auto;html=1;entryX=0.315;entryY=1.014;entryDx=0;entryDy=0;entryPerimeter=0;" edge="1" parent="1" source="9hlInutrF6bWVYg36ET1-2" target="9hlInutrF6bWVYg36ET1-8">
          <mxGeometry relative="1" as="geometry" />
        </mxCell>
        <mxCell id="9hlInutrF6bWVYg36ET1-2" value="DynamoDB" style="sketch=0;points=[[0,0,0],[0.25,0,0],[0.5,0,0],[0.75,0,0],[1,0,0],[0,1,0],[0.25,1,0],[0.5,1,0],[0.75,1,0],[1,1,0],[0,0.25,0],[0,0.5,0],[0,0.75,0],[1,0.25,0],[1,0.5,0],[1,0.75,0]];outlineConnect=0;fontColor=#232F3E;gradientColor=#4D72F3;gradientDirection=north;fillColor=#3334B9;strokeColor=#ffffff;dashed=0;verticalLabelPosition=bottom;verticalAlign=top;align=center;html=1;fontSize=12;fontStyle=0;aspect=fixed;shape=mxgraph.aws4.resourceIcon;resIcon=mxgraph.aws4.dynamodb;" vertex="1" parent="1">
          <mxGeometry x="291" y="550" width="78" height="78" as="geometry" />
        </mxCell>
        <mxCell id="9hlInutrF6bWVYg36ET1-15" style="rounded=0;orthogonalLoop=1;jettySize=auto;html=1;entryX=0.846;entryY=1.014;entryDx=0;entryDy=0;entryPerimeter=0;" edge="1" parent="1" source="9hlInutrF6bWVYg36ET1-4" target="9hlInutrF6bWVYg36ET1-8">
          <mxGeometry relative="1" as="geometry" />
        </mxCell>
        <mxCell id="9hlInutrF6bWVYg36ET1-4" value="DynamoDB Streams" style="sketch=0;outlineConnect=0;fontColor=#232F3E;gradientColor=none;fillColor=#2E27AD;strokeColor=none;dashed=0;verticalLabelPosition=bottom;verticalAlign=top;align=center;html=1;fontSize=12;fontStyle=0;aspect=fixed;pointerEvents=1;shape=mxgraph.aws4.dynamodb_stream;" vertex="1" parent="1">
          <mxGeometry x="490" y="550" width="78" height="78" as="geometry" />
        </mxCell>
        <mxCell id="9hlInutrF6bWVYg36ET1-13" style="rounded=0;orthogonalLoop=1;jettySize=auto;html=1;exitX=0.124;exitY=0.986;exitDx=0;exitDy=0;exitPerimeter=0;" edge="1" parent="1" source="9hlInutrF6bWVYg36ET1-8" target="9hlInutrF6bWVYg36ET1-2">
          <mxGeometry relative="1" as="geometry" />
        </mxCell>
        <mxCell id="9hlInutrF6bWVYg36ET1-14" style="rounded=0;orthogonalLoop=1;jettySize=auto;html=1;exitX=0.655;exitY=1.057;exitDx=0;exitDy=0;exitPerimeter=0;" edge="1" parent="1" source="9hlInutrF6bWVYg36ET1-8" target="9hlInutrF6bWVYg36ET1-4">
          <mxGeometry relative="1" as="geometry" />
        </mxCell>
        <mxCell id="9hlInutrF6bWVYg36ET1-20" style="edgeStyle=orthogonalEdgeStyle;rounded=0;orthogonalLoop=1;jettySize=auto;html=1;entryX=0.25;entryY=1;entryDx=0;entryDy=0;" edge="1" parent="1" source="9hlInutrF6bWVYg36ET1-8" target="9hlInutrF6bWVYg36ET1-19">
          <mxGeometry relative="1" as="geometry">
            <Array as="points">
              <mxPoint x="338" y="330" />
              <mxPoint x="338" y="330" />
            </Array>
          </mxGeometry>
        </mxCell>
        <mxCell id="9hlInutrF6bWVYg36ET1-8" value="AWS SDK" style="whiteSpace=wrap;html=1;labelPosition=left;verticalLabelPosition=middle;align=right;verticalAlign=middle;spacingRight=10;fontStyle=1" vertex="1" parent="1">
          <mxGeometry x="240.5" y="390" width="391" height="70" as="geometry" />
        </mxCell>
        <mxCell id="9hlInutrF6bWVYg36ET1-16" value="DynamoDB Low-Level API" style="whiteSpace=wrap;html=1;" vertex="1" parent="1">
          <mxGeometry x="250" y="410" width="160" height="30" as="geometry" />
        </mxCell>
        <mxCell id="9hlInutrF6bWVYg36ET1-17" value="DynamoDB Streams Low-Level API" style="whiteSpace=wrap;html=1;" vertex="1" parent="1">
          <mxGeometry x="420" y="410" width="205" height="30" as="geometry" />
        </mxCell>
        <mxCell id="9hlInutrF6bWVYg36ET1-18" style="edgeStyle=orthogonalEdgeStyle;rounded=0;orthogonalLoop=1;jettySize=auto;html=1;exitX=0.5;exitY=1;exitDx=0;exitDy=0;" edge="1" parent="1" source="9hlInutrF6bWVYg36ET1-16" target="9hlInutrF6bWVYg36ET1-16">
          <mxGeometry relative="1" as="geometry" />
        </mxCell>
        <mxCell id="9hlInutrF6bWVYg36ET1-27" style="edgeStyle=orthogonalEdgeStyle;rounded=0;orthogonalLoop=1;jettySize=auto;html=1;startArrow=classic;startFill=1;" edge="1" parent="1" source="9hlInutrF6bWVYg36ET1-21" target="9hlInutrF6bWVYg36ET1-22">
          <mxGeometry relative="1" as="geometry">
            <mxPoint x="528.9999999999998" y="270" as="targetPoint" />
          </mxGeometry>
        </mxCell>
        <mxCell id="9hlInutrF6bWVYg36ET1-21" value="Kinesis Client Library (KCL)" style="whiteSpace=wrap;html=1;" vertex="1" parent="1">
          <mxGeometry x="426.5" y="230" width="205" height="30" as="geometry" />
        </mxCell>
        <mxCell id="9hlInutrF6bWVYg36ET1-30" style="edgeStyle=orthogonalEdgeStyle;rounded=0;orthogonalLoop=1;jettySize=auto;html=1;entryX=0.738;entryY=-0.006;entryDx=0;entryDy=0;entryPerimeter=0;startArrow=classic;startFill=1;" edge="1" parent="1" source="9hlInutrF6bWVYg36ET1-22" target="9hlInutrF6bWVYg36ET1-8">
          <mxGeometry relative="1" as="geometry" />
        </mxCell>
        <mxCell id="9hlInutrF6bWVYg36ET1-22" value="DynamoDB Streams Kinesis Adapter" style="whiteSpace=wrap;html=1;" vertex="1" parent="1">
          <mxGeometry x="426.5" y="310" width="205" height="30" as="geometry" />
        </mxCell>
        <mxCell id="9hlInutrF6bWVYg36ET1-31" value="" style="sketch=0;points=[[0,0,0],[0.25,0,0],[0.5,0,0],[0.75,0,0],[1,0,0],[0,1,0],[0.25,1,0],[0.5,1,0],[0.75,1,0],[1,1,0],[0,0.25,0],[0,0.5,0],[0,0.75,0],[1,0.25,0],[1,0.5,0],[1,0.75,0]];outlineConnect=0;fontColor=#232F3E;gradientColor=#4D72F3;gradientDirection=north;fillColor=#3334B9;strokeColor=#ffffff;dashed=0;verticalLabelPosition=bottom;verticalAlign=top;align=center;html=1;fontSize=12;fontStyle=0;aspect=fixed;shape=mxgraph.aws4.resourceIcon;resIcon=mxgraph.aws4.tools_and_sdks;" vertex="1" parent="1">
          <mxGeometry x="150" y="414" width="20" height="20" as="geometry" />
        </mxCell>
      </root>
    </mxGraphModel>
  </diagram>
</mxfile>
